<svg xmlns="http://www.w3.org/2000/svg" xmlns:xlink="http://www.w3.org/1999/xlink" version="1.1" x="0px" y="0px" viewBox="0 0 100 125" enable-background="new 0 0 100 100" xml:space="preserve"><path d="M33.71,26.152c1.337-1.311,4.95-1.3,7.213,0.451c-3.013,1.499-7.463,4.799-7.463,11.998c0,5.227,2.919,8.918,6.933,11.995  c-1.707-0.694-11.799-6.151-11.799-13.062C28.593,31.652,31.061,28.752,33.71,26.152z"/><path d="M65.807,26.152c-1.337-1.311-4.95-1.3-7.213,0.451c3.013,1.499,7.463,4.799,7.463,11.998c0,5.227-2.919,8.918-6.933,11.995  c1.707-0.694,11.8-6.151,11.8-13.062C70.924,31.652,68.456,28.752,65.807,26.152z"/><path d="M58.193,30.203c-0.883-0.769-1.869-1.421-2.938-1.932c-2.09,0.999-3.871,2.537-5.162,4.438  c-1.38-2.034-3.325-3.65-5.604-4.638c-1.171,0.508-2.251,1.183-3.213,1.995c-2.824,2.384-4.62,5.949-4.62,9.935  c0,5.349,3.234,9.938,7.851,11.933c0.052,0.022,0.102,0.049,0.153,0.07c1.538,0.641,3.226,0.996,4.996,0.996  c1.954,0,3.806-0.434,5.468-1.205c4.447-2.065,7.532-6.568,7.532-11.794C62.656,36.091,60.928,32.586,58.193,30.203z"/><path d="M62.962,22.778c-2.921-3.948-7.593-6.52-12.868-6.572c-5.275,0.052-9.947,2.624-12.868,6.572  c0.687-0.112,1.389-0.176,2.105-0.176c1.834,0,3.576,0.385,5.158,1.07c2.28,0.987,4.224,2.604,5.604,4.637  c1.291-1.9,3.072-3.438,5.162-4.438c1.696-0.812,3.594-1.269,5.601-1.269C61.573,22.603,62.275,22.666,62.962,22.778z"/><path d="M66.273,56.803H34.126c-1.685,0-3.049,2.148-3.049,4.8v28.384c4.979,3.016,15.679,4.392,19.123,4.392  c2.556,0,13.056-1.075,19.123-4.392V61.603C69.323,58.951,67.958,56.803,66.273,56.803z M64.58,78.853h-11.52  c-1.061,0-1.92-0.896-1.92-2s0.859-2,1.92-2h11.52c1.061,0,1.92,0.896,1.92,2S65.641,78.853,64.58,78.853z M64.58,72.652h-11.52  c-1.061,0-1.92-0.896-1.92-2s0.859-2,1.92-2h11.52c1.061,0,1.92,0.896,1.92,2S65.641,72.652,64.58,72.652z M64.5,66.452H46.45  c-1.104,0-2-0.896-2-2s0.896-2,2-2H64.5c1.104,0,2,0.896,2,2S65.604,66.452,64.5,66.452z"/><text x="0" y="115" fill="#000000" font-size="5px" font-weight="bold" font-family="'Helvetica Neue', Helvetica, Arial-Unicode, Arial, Sans-serif">Created by Amandine Vandesteene</text><text x="0" y="120" fill="#000000" font-size="5px" font-weight="bold" font-family="'Helvetica Neue', Helvetica, Arial-Unicode, Arial, Sans-serif">from the Noun Project</text></svg>